<?xml version="1.0" encoding="UTF-8"?>
<svg width="24px" height="24px" viewBox="0 0 24 24" version="1.1" xmlns="http://www.w3.org/2000/svg" xmlns:xlink="http://www.w3.org/1999/xlink">
    <!-- Generator: Sketch 52.6 (67491) - http://www.bohemiancoding.com/sketch -->
    <title>Slack_Mark_Monochrome_White</title>
    <desc>Created with Sketch.</desc>
    <g id="Page-1" stroke="none" stroke-width="1" fill="none" fill-rule="evenodd">
        <g id="トップ" transform="translate(-1037.000000, -31.000000)" fill="#FFFFFF">
            <g id="Slack_Mark_Monochrome_White" transform="translate(1037.000000, 31.000000)">
                <g id="Group" transform="translate(0.000000, 12.521739)">
                    <path d="M5.13603537,2.56801769 C5.13603537,3.94929993 4.00766396,5.07767133 2.62638172,5.07767133 C1.24509948,5.07767133 0.116728077,3.94929993 0.116728077,2.56801769 C0.116728077,1.18673545 1.24509948,0.0583640383 2.62638172,0.0583640383 L5.13603537,0.0583640383 L5.13603537,2.56801769 Z" id="Path"></path>
                    <path d="M6.40058954,2.56801769 C6.40058954,1.18673545 7.52896094,0.0583640383 8.91024318,0.0583640383 C10.2915254,0.0583640383 11.4198968,1.18673545 11.4198968,2.56801769 L11.4198968,8.85187915 C11.4198968,10.2331614 10.2915254,11.3615328 8.91024318,11.3615328 C7.52896094,11.3615328 6.40058954,10.2331614 6.40058954,8.85187915 C6.40058954,8.85187915 6.40058954,2.56801769 6.40058954,2.56801769 Z" id="Path"></path>
                </g>
                <g id="Group">
                    <path d="M8.91024318,5.13603537 C7.52896094,5.13603537 6.40058954,4.00766396 6.40058954,2.62638172 C6.40058954,1.24509948 7.52896094,0.116728077 8.91024318,0.116728077 C10.2915254,0.116728077 11.4198968,1.24509948 11.4198968,2.62638172 L11.4198968,5.13603537 L8.91024318,5.13603537 Z" id="Path"></path>
                    <path d="M8.91024318,6.40058954 C10.2915254,6.40058954 11.4198968,7.52896094 11.4198968,8.91024318 C11.4198968,10.2915254 10.2915254,11.4198968 8.91024318,11.4198968 L2.62638172,11.4198968 C1.24509948,11.4198968 0.116728077,10.2915254 0.116728077,8.91024318 C0.116728077,7.52896094 1.24509948,6.40058954 2.62638172,6.40058954 C2.62638172,6.40058954 8.91024318,6.40058954 8.91024318,6.40058954 Z" id="Path"></path>
                </g>
                <g id="Group" transform="translate(12.521739, 0.000000)">
                    <path d="M6.3422255,8.91024318 C6.3422255,7.52896094 7.4705969,6.40058954 8.85187915,6.40058954 C10.2331614,6.40058954 11.3615328,7.52896094 11.3615328,8.91024318 C11.3615328,10.2915254 10.2331614,11.4198968 8.85187915,11.4198968 L6.3422255,11.4198968 L6.3422255,8.91024318 Z" id="Path"></path>
                    <path d="M5.07767133,8.91024318 C5.07767133,10.2915254 3.94929993,11.4198968 2.56801769,11.4198968 C1.18673545,11.4198968 0.0583640383,10.2915254 0.0583640383,8.91024318 L0.0583640383,2.62638172 C0.0583640383,1.24509948 1.18673545,0.116728077 2.56801769,0.116728077 C3.94929993,0.116728077 5.07767133,1.24509948 5.07767133,2.62638172 L5.07767133,8.91024318 Z" id="Path"></path>
                </g>
                <g id="Group" transform="translate(12.521739, 12.521739)">
                    <path d="M2.56801769,6.3422255 C3.94929993,6.3422255 5.07767133,7.4705969 5.07767133,8.85187915 C5.07767133,10.2331614 3.94929993,11.3615328 2.56801769,11.3615328 C1.18673545,11.3615328 0.0583640383,10.2331614 0.0583640383,8.85187915 L0.0583640383,6.3422255 L2.56801769,6.3422255 Z" id="Path"></path>
                    <path d="M2.56801769,5.07767133 C1.18673545,5.07767133 0.0583640383,3.94929993 0.0583640383,2.56801769 C0.0583640383,1.18673545 1.18673545,0.0583640383 2.56801769,0.0583640383 L8.85187915,0.0583640383 C10.2331614,0.0583640383 11.3615328,1.18673545 11.3615328,2.56801769 C11.3615328,3.94929993 10.2331614,5.07767133 8.85187915,5.07767133 L2.56801769,5.07767133 Z" id="Path"></path>
                </g>
            </g>
        </g>
    </g>
</svg>