<?xml version="1.0" encoding="UTF-8"?>
<svg width="22px" height="17px" viewBox="0 0 22 17" version="1.1" xmlns="http://www.w3.org/2000/svg" xmlns:xlink="http://www.w3.org/1999/xlink">
    <!-- Generator: Sketch 52.6 (67491) - http://www.bohemiancoding.com/sketch -->
    <title>twitter</title>
    <desc>Created with Sketch.</desc>
    <g id="Page-1" stroke="none" stroke-width="1" fill="none" fill-rule="evenodd">
        <g id="トップ" transform="translate(-990.000000, -35.000000)" fill="#FFFFFF">
            <g id="twitter" transform="translate(990.000000, 35.000000)">
                <path d="M21.3089926,2.11160714 C20.7214606,2.97098214 20.0111607,3.703205 19.178093,4.30827493 C19.1868624,4.43104279 19.1912466,4.61519457 19.1912466,4.86073029 C19.1912466,6.00071764 19.0246336,7.13851207 18.6914059,8.27411514 C18.3581789,9.40971743 17.8517617,10.4992824 17.1721542,11.5428091 C16.4925459,12.5863359 15.6835941,13.509287 14.7452965,14.3116631 C13.8069996,15.1140385 12.6757809,15.7541851 11.3516425,16.2321029 C10.0275034,16.7100206 8.61128793,16.9489799 7.10299779,16.9489799 C4.7265625,16.9489799 2.55181771,16.3132176 0.578762643,15.0416931 C0.885682286,15.0767697 1.22767857,15.0943084 1.6047515,15.0943084 C3.57780579,15.0943084 5.3360175,14.4892377 6.87938429,13.2790979 C5.95862536,13.2615591 5.134327,12.9787546 4.40648921,12.4306844 C3.67865143,11.8826133 3.17881064,11.1832749 2.90696764,10.3326693 C3.19634857,10.3765145 3.46380729,10.3984375 3.709343,10.3984375 C4.08641593,10.3984375 4.45910379,10.3502072 4.82740736,10.2537466 C3.8452645,10.0520569 3.03192764,9.56317764 2.387396,8.78710957 C1.74286514,8.0110415 1.42059971,7.11001264 1.42059971,6.08402457 L1.42059971,6.03140921 C2.01690029,6.36463614 2.65704686,6.54440364 3.34103943,6.57071093 C2.76227679,6.18486943 2.30189771,5.68064436 1.95990143,5.05803571 C1.61790514,4.43542707 1.446907,3.76020386 1.446907,3.03236607 C1.446907,2.26068229 1.63982814,1.54599814 2.02566964,0.888312857 C3.08673436,2.19491407 4.37798979,3.240633 5.89943436,4.02547043 C7.42087814,4.81030786 9.04974479,5.24657179 10.7860335,5.334263 C10.7158802,5.00103607 10.6808036,4.6765785 10.6808036,4.3608895 C10.6808036,3.18582629 11.0951453,2.18395257 11.9238279,1.35526914 C12.7525114,0.5265865 13.7543843,0.112244786 14.9294483,0.112244786 C16.1571269,0.112244786 17.1918843,0.559471 18.0337214,1.45392186 C18.9895569,1.26977007 19.8883929,0.927774571 20.7302299,0.427933786 C20.4057716,1.43638393 19.7831629,2.21683707 18.862404,2.76929243 C19.6779338,2.68160043 20.4934628,2.46237279 21.3089926,2.11160714 Z" id="Path"></path>
            </g>
        </g>
    </g>
</svg>